<svg width="258" height="64" viewBox="0 0 258 64" fill="none" xmlns="http://www.w3.org/2000/svg">
<g clip-path="url(#clip0_438_31)">
<path d="M254.01 47.4712H198.001C197.465 47.472 196.934 47.3615 196.443 47.1468C196.205 47.0426 195.977 46.9152 195.764 46.7664C195.551 46.6178 195.353 46.4491 195.172 46.2626C194.805 45.8841 194.514 45.4391 194.314 44.9514C194.106 44.4418 193.999 43.8962 194 43.3455V20.6545C193.999 20.1038 194.106 19.5582 194.314 19.0486C194.514 18.5609 194.805 18.1158 195.172 17.7372C195.353 17.5507 195.551 17.382 195.764 17.2334C195.977 17.0846 196.205 16.9572 196.443 16.8531C196.935 16.6384 197.465 16.5279 198.001 16.5288H254.01C254.546 16.528 255.076 16.6384 255.567 16.8531C255.805 16.9572 256.033 17.0846 256.246 17.2334C256.459 17.382 256.658 17.5507 256.839 17.7372C257.205 18.1158 257.496 18.5609 257.696 19.0486C257.905 19.5582 258.012 20.1038 258.01 20.6545V43.3455C258.012 43.8962 257.905 44.4418 257.696 44.9514C257.496 45.4391 257.205 45.8842 256.839 46.2629C256.658 46.4493 256.459 46.618 256.246 46.7666C256.033 46.9154 255.805 47.0428 255.567 47.147C255.076 47.3617 254.546 47.4721 254.01 47.4712ZM222.189 27.0632C221.752 27.0617 221.316 27.1006 220.886 27.1794C220.483 27.2541 220.089 27.3709 219.71 27.528C219.341 27.6826 218.989 27.8774 218.662 28.1089C218.328 28.3471 218.019 28.6197 217.742 28.9221C217.454 29.2362 217.202 29.5821 216.992 29.9533C216.772 30.3453 216.593 30.7589 216.457 31.1875C216.309 31.6565 216.202 32.1374 216.136 32.6248C215.989 33.7437 215.993 34.8772 216.147 35.995C216.219 36.4957 216.338 36.9883 216.503 37.4662C216.652 37.8928 216.851 38.3 217.097 38.6789C217.328 39.0334 217.608 39.3544 217.927 39.6329C218.234 39.9011 218.564 40.1426 218.913 40.3547C219.249 40.5586 219.603 40.7312 219.971 40.8702C220.338 41.008 220.717 41.1115 221.103 41.1795C221.501 41.2488 221.904 41.2833 222.308 41.2826C222.784 41.2846 223.26 41.2436 223.729 41.1603C224.159 41.0831 224.579 40.9601 224.982 40.7932C225.367 40.6327 225.732 40.4273 226.069 40.1815C226.407 39.9325 226.716 39.6451 226.988 39.3251C227.318 38.955 227.6 38.5444 227.827 38.1032C228.019 37.7268 228.143 37.3194 228.194 36.8999H224.72C224.538 37.292 224.325 37.6027 224.087 37.8232C223.87 38.0272 223.613 38.1844 223.332 38.2849C223.026 38.3909 222.704 38.443 222.38 38.439C222.069 38.4414 221.76 38.3989 221.461 38.3128C221.183 38.2306 220.921 38.1027 220.685 37.9342C220.493 37.7989 220.32 37.6367 220.174 37.4525C220.022 37.259 219.896 37.0463 219.799 36.82C219.692 36.5681 219.611 36.3055 219.56 36.0367C219.5 35.7286 219.465 35.4162 219.456 35.1025H228.361C228.377 33.9507 228.341 33.056 228.254 32.4433C228.183 31.939 228.062 31.4431 227.892 30.9629C227.732 30.5107 227.52 30.0781 227.263 29.6733C226.996 29.2415 226.673 28.8471 226.302 28.5006C225.948 28.1736 225.548 27.9008 225.114 27.6911C224.674 27.4799 224.21 27.3218 223.732 27.2202C223.225 27.1138 222.707 27.0611 222.189 27.0632ZM243.797 29.9194C244.114 29.916 244.43 29.9423 244.742 29.9979C244.981 30.0392 245.212 30.1187 245.427 30.2334C245.608 30.3342 245.753 30.4884 245.843 30.675C245.941 30.8939 245.989 31.1323 245.982 31.3721C245.986 31.5825 245.922 31.7887 245.8 31.9598C245.657 32.142 245.468 32.2832 245.254 32.3691C244.984 32.4916 244.531 32.5952 243.905 32.6769L242.747 32.8246C242.162 32.8965 241.583 33.0118 241.015 33.1693C240.578 33.2884 240.156 33.4621 239.762 33.6864C239.465 33.8624 239.192 34.0775 238.952 34.3258C238.722 34.5668 238.527 34.8396 238.374 35.136C238.216 35.4464 238.099 35.7762 238.027 36.1171C237.948 36.4958 237.909 36.882 237.912 37.2689C237.91 37.5705 237.934 37.8716 237.984 38.1691C238.029 38.4395 238.101 38.7047 238.2 38.9605C238.293 39.2011 238.414 39.4303 238.56 39.6434C238.705 39.8539 238.874 40.0466 239.064 40.2178C239.443 40.5618 239.887 40.827 240.369 40.998C240.619 41.0862 240.876 41.1515 241.137 41.1931C241.417 41.2371 241.699 41.2589 241.982 41.2581C242.425 41.2602 242.867 41.2054 243.296 41.095C243.707 40.9872 244.1 40.8225 244.466 40.6057C244.769 40.4231 245.058 40.2183 245.331 39.9931C245.602 39.7692 245.855 39.5254 246.089 39.2636C246.113 39.5653 246.145 39.8387 246.185 40.0762C246.231 40.3371 246.303 40.5927 246.4 40.8395H250.1V40.3224C249.9 40.2339 249.727 40.0937 249.599 39.9161C249.488 39.7526 249.42 39.4378 249.396 38.9804C249.38 38.3768 249.372 37.8549 249.372 37.4292V31.2736C249.375 30.8992 249.34 30.5255 249.268 30.1579C249.206 29.8383 249.101 29.5283 248.957 29.2361C248.823 28.9679 248.648 28.7223 248.438 28.5083C248.225 28.294 247.98 28.1139 247.712 27.9743C247.15 27.68 246.553 27.4597 245.934 27.3187C245.272 27.17 244.595 27.0966 243.917 27.0999C243.408 27.0972 242.899 27.1343 242.396 27.2107C241.959 27.2769 241.531 27.3883 241.117 27.543C240.749 27.6816 240.4 27.8678 240.08 28.097C239.778 28.3153 239.51 28.5766 239.285 28.8726C238.995 29.2638 238.772 29.6994 238.622 30.1622C238.456 30.682 238.358 31.221 238.33 31.7658H241.613C241.647 31.5282 241.707 31.295 241.792 31.0703C241.864 30.878 241.965 30.6975 242.09 30.5347C242.269 30.3217 242.504 30.162 242.768 30.0731C243.099 29.9635 243.448 29.9115 243.797 29.9194H243.797ZM205.332 39.1529C205.532 39.4465 205.751 39.7261 205.988 39.9899C206.17 40.1934 206.374 40.3752 206.597 40.5317C206.945 40.7622 207.329 40.9309 207.734 41.0302C208.21 41.1459 208.698 41.2018 209.188 41.1965C209.596 41.1984 210.002 41.1553 210.401 41.0679C210.772 40.9852 211.132 40.8557 211.471 40.6824C211.807 40.509 212.119 40.2931 212.4 40.0399C212.696 39.7713 212.96 39.4695 213.187 39.1405C213.428 38.7945 213.638 38.4281 213.814 38.0455C213.997 37.6487 214.146 37.2378 214.262 36.8167C214.384 36.3695 214.474 35.9141 214.531 35.4539C214.591 34.9574 214.621 34.4576 214.62 33.9574C214.621 33.4763 214.591 32.9956 214.53 32.5185C214.473 32.0787 214.382 31.644 214.258 31.2182C214.141 30.8184 213.989 30.4296 213.804 30.0562C213.625 29.696 213.413 29.3534 213.17 29.0329C212.937 28.7251 212.671 28.445 212.375 28.198C212.089 27.9613 211.775 27.761 211.44 27.6016C211.097 27.4402 210.737 27.3201 210.366 27.2438C209.967 27.1627 209.56 27.1227 209.152 27.1245C208.716 27.1203 208.28 27.172 207.857 27.2784C207.486 27.3731 207.133 27.5292 206.812 27.7401C206.543 27.9131 206.294 28.1154 206.069 28.3434C205.819 28.5977 205.593 28.8739 205.392 29.1686V22.7174H202.001V40.8394H205.332V39.1529H205.332ZM229.316 27.5433V30.0425H231.131V38.3033C231.124 38.6726 231.172 39.0408 231.274 39.3959C231.356 39.6812 231.503 39.9436 231.704 40.1623C231.846 40.3125 232.009 40.4406 232.189 40.5425C232.393 40.6575 232.61 40.7487 232.835 40.814C233.316 40.9582 233.913 41.0312 234.607 41.0313C234.734 41.0313 234.865 41.0289 234.999 41.0241L236.61 40.9625V38.3402C236.499 38.3484 236.385 38.3545 236.27 38.359C236.155 38.3634 236.044 38.3652 235.942 38.3652C235.664 38.3696 235.387 38.3527 235.112 38.3144C234.906 38.2808 234.768 38.2295 234.7 38.1621C234.633 38.0947 234.581 37.9741 234.548 37.8035C234.51 37.5825 234.493 37.3583 234.497 37.1341V30.0425H236.61V27.5433H234.497V23.8007H231.131V27.5433H229.316ZM242.985 38.7096C242.768 38.7116 242.552 38.6778 242.345 38.6096C242.15 38.5431 241.968 38.4414 241.809 38.3096C241.644 38.1699 241.519 37.9888 241.447 37.7848C241.361 37.5359 241.32 37.2739 241.326 37.0108C241.319 36.7067 241.386 36.4054 241.523 36.1336C241.66 35.8793 241.865 35.6675 242.114 35.5209C242.423 35.333 242.941 35.1715 243.654 35.0409L244.418 34.8931C244.725 34.8395 245.026 34.7592 245.319 34.653C245.547 34.5622 245.765 34.4488 245.97 34.3145V35.6197C245.958 36.2038 245.871 36.704 245.712 37.1063C245.637 37.2978 245.538 37.4786 245.416 37.6439C245.302 37.7976 245.164 37.9329 245.009 38.0451C244.714 38.2598 244.387 38.428 244.041 38.5438C243.7 38.6548 243.344 38.7108 242.985 38.7097L242.985 38.7096ZM208.281 38.3033C208.042 38.3047 207.805 38.281 207.571 38.2327C207.359 38.1881 207.153 38.1167 206.959 38.0201C206.771 37.9262 206.598 37.8071 206.443 37.6662C206.283 37.5194 206.142 37.3529 206.024 37.1707C205.771 36.7769 205.583 36.3444 205.469 35.8903C205.341 35.3749 205.279 34.8455 205.284 34.3145C205.281 33.8697 205.311 33.4253 205.374 32.9849C205.424 32.6232 205.514 32.2681 205.642 31.9261C205.748 31.6555 205.888 31.4001 206.061 31.1666C206.218 30.9563 206.408 30.7731 206.625 30.6241C206.841 30.4775 207.08 30.3676 207.333 30.2986C207.611 30.2242 207.898 30.1877 208.185 30.1901C208.47 30.1876 208.753 30.2249 209.027 30.301C209.277 30.3718 209.513 30.4841 209.725 30.6333C209.939 30.7864 210.127 30.9736 210.281 31.1873C210.451 31.4268 210.589 31.6875 210.692 31.9628C210.819 32.3051 210.91 32.6601 210.961 33.0216C211.023 33.4537 211.053 33.8899 211.051 34.3265C211.056 34.8696 210.995 35.4112 210.869 35.9393C210.76 36.3899 210.575 36.8188 210.322 37.2075C210.207 37.3821 210.073 37.5429 209.922 37.6869C209.636 37.9574 209.284 38.1466 208.901 38.2347C208.697 38.2814 208.489 38.3044 208.281 38.3034V38.3033ZM224.828 32.7878H219.539C219.586 32.3876 219.683 31.9948 219.827 31.6183C219.953 31.2916 220.132 30.988 220.357 30.7196C220.569 30.4692 220.837 30.273 221.14 30.1471C221.799 29.8964 222.526 29.8926 223.188 30.1364C223.507 30.2638 223.796 30.4567 224.036 30.7027C224.276 30.9486 224.462 31.2422 224.582 31.5644C224.726 31.9572 224.809 32.3698 224.828 32.7878L224.828 32.7878Z" fill="#FAB023"/>
</g>
<g clip-path="url(#clip1_438_31)">
<path d="M0.386719 28.8333C0.386719 25.6543 1.10991 22.8148 2.55631 20.3148C4.03414 17.7839 6.03078 15.8241 8.54626 14.4352C11.0932 13.0154 13.9388 12.3055 17.0831 12.3055C20.762 12.3055 23.9849 13.2315 26.752 15.0833C29.5189 16.9352 31.4526 19.4969 32.5533 22.7685H24.9597C24.2051 21.2253 23.1359 20.0679 21.7525 19.2963C20.4004 18.5247 18.8282 18.1389 17.0359 18.1389C15.1179 18.1389 13.4042 18.5864 11.895 19.4815C10.4171 20.3457 9.25373 21.5802 8.40476 23.1852C7.58723 24.7901 7.17847 26.6728 7.17847 28.8333C7.17847 30.9629 7.58723 32.8457 8.40476 34.4815C9.25373 36.0865 10.4171 37.3365 11.895 38.2315C13.4042 39.0957 15.1179 39.5278 17.0359 39.5278C18.8282 39.5278 20.4004 39.142 21.7525 38.3704C23.1359 37.5679 24.2051 36.395 24.9597 34.8518H32.5533C31.4526 38.1542 29.5189 40.7315 26.752 42.5833C24.0164 44.4042 20.7933 45.3148 17.0831 45.3148C13.9388 45.3148 11.0932 44.6204 8.54626 43.2315C6.03078 41.8116 4.03414 39.8518 2.55631 37.3518C1.10991 34.8518 0.386719 32.0124 0.386719 28.8333ZM44.7961 10.7778V45.037H38.1931V10.7778H44.7961ZM54.6687 16.3333C53.5054 16.3333 52.5306 15.9784 51.7445 15.2685C50.9898 14.5278 50.6125 13.6173 50.6125 12.537C50.6125 11.4568 50.9898 10.5617 51.7445 9.85183C52.5306 9.11109 53.5054 8.74072 54.6687 8.74072C55.8322 8.74072 56.7911 9.11109 57.5458 9.85183C58.3319 10.5617 58.7249 11.4568 58.7249 12.537C58.7249 13.6173 58.3319 14.5278 57.5458 15.2685C56.7911 15.9784 55.8322 16.3333 54.6687 16.3333ZM57.9231 19.3889V45.037H51.32V19.3889H57.9231ZM71.05 23.0926C71.899 21.9197 73.0625 20.9475 74.5403 20.1759C76.0495 19.3734 77.7633 18.9722 79.6812 18.9722C81.9138 18.9722 83.9261 19.5123 85.7183 20.5926C87.5421 21.6728 88.9727 23.216 90.0103 25.2222C91.0795 27.1976 91.614 29.4968 91.614 32.1204C91.614 34.7439 91.0795 37.0741 90.0103 39.1111C88.9727 41.1172 87.5421 42.6759 85.7183 43.787C83.9261 44.8981 81.9138 45.4537 79.6812 45.4537C77.7633 45.4537 76.0654 45.0679 74.5874 44.2963C73.1411 43.5246 71.962 42.5524 71.05 41.3796V57.2592H64.4469V19.3889H71.05V23.0926ZM84.8694 32.1204C84.8694 30.5772 84.5392 29.25 83.8789 28.1389C83.2501 26.9968 82.4011 26.1327 81.332 25.5463C80.2944 24.9599 79.1624 24.6667 77.9361 24.6667C76.7413 24.6667 75.6094 24.9753 74.5403 25.5926C73.5026 26.179 72.6536 27.0431 71.9933 28.1852C71.3645 29.3272 71.05 30.6698 71.05 32.2129C71.05 33.7561 71.3645 35.0987 71.9933 36.2407C72.6536 37.3828 73.5026 38.2624 74.5403 38.8796C75.6094 39.4661 76.7413 39.7592 77.9361 39.7592C79.1624 39.7592 80.2944 39.4505 81.332 38.8333C82.4011 38.2161 83.2501 37.3365 83.8789 36.1944C84.5392 35.0524 84.8694 33.6944 84.8694 32.1204Z" fill="white"/>
<path d="M103.157 39.574H117.967V45.037H95.5166V40.037L110.232 18.1851H95.5166V12.7222H117.967V17.7222L103.157 39.574ZM121.89 32.1203C121.89 29.5277 122.409 27.2283 123.446 25.2222C124.515 23.216 125.946 21.6728 127.738 20.5925C129.562 19.5123 131.59 18.9722 133.823 18.9722C135.772 18.9722 137.47 19.358 138.916 20.1296C140.394 20.9012 141.573 21.8734 142.454 23.0462V19.3888H149.104V45.037H142.454V41.287C141.605 42.4907 140.426 43.4938 138.916 44.2962C137.439 45.0679 135.725 45.4537 133.775 45.4537C131.574 45.4537 129.562 44.8981 127.738 43.787C125.946 42.6759 124.515 41.1172 123.446 39.1111C122.409 37.074 121.89 34.7438 121.89 32.1203ZM142.454 32.2129C142.454 30.6388 142.139 29.2962 141.511 28.1851C140.882 27.0431 140.033 26.179 138.964 25.5925C137.895 24.9753 136.747 24.6666 135.521 24.6666C134.294 24.6666 133.162 24.9598 132.125 25.5462C131.087 26.1327 130.238 26.9968 129.578 28.1388C128.949 29.2499 128.635 30.5772 128.635 32.1203C128.635 33.6635 128.949 35.0216 129.578 36.1944C130.238 37.3364 131.087 38.2161 132.125 38.8333C133.194 39.4505 134.326 39.7592 135.521 39.7592C136.747 39.7592 137.895 39.4661 138.964 38.8796C140.033 38.2624 140.882 37.3981 141.511 36.287C142.139 35.1449 142.454 33.787 142.454 32.2129ZM162.156 23.0925C163.005 21.9197 164.169 20.9475 165.647 20.1759C167.156 19.3734 168.869 18.9722 170.788 18.9722C173.02 18.9722 175.032 19.5123 176.825 20.5925C178.648 21.6728 180.079 23.216 181.117 25.2222C182.186 27.1975 182.72 29.4968 182.72 32.1203C182.72 34.7438 182.186 37.074 181.117 39.1111C180.079 41.1172 178.648 42.6759 176.825 43.787C175.032 44.8981 173.02 45.4537 170.788 45.4537C168.869 45.4537 167.171 45.0679 165.694 44.2962C164.247 43.5246 163.068 42.5524 162.156 41.3796V57.2592H155.553V19.3888H162.156V23.0925ZM175.976 32.1203C175.976 30.5772 175.646 29.2499 174.985 28.1388C174.356 26.9968 173.507 26.1327 172.438 25.5462C171.401 24.9598 170.269 24.6666 169.042 24.6666C167.847 24.6666 166.715 24.9753 165.647 25.5925C164.609 26.179 163.76 27.0431 163.1 28.1851C162.471 29.3272 162.156 30.6698 162.156 32.2129C162.156 33.7561 162.471 35.0987 163.1 36.2407C163.76 37.3827 164.609 38.2624 165.647 38.8796C166.715 39.4661 167.847 39.7592 169.042 39.7592C170.269 39.7592 171.401 39.4505 172.438 38.8333C173.507 38.2161 174.356 37.3364 174.985 36.1944C175.646 35.0524 175.976 33.6944 175.976 32.1203Z" fill="#9D70FF"/>
</g>
<defs>
<clipPath id="clip0_438_31">
<rect width="64" height="64" fill="white" transform="translate(194)"/>
</clipPath>
<clipPath id="clip1_438_31">
<rect width="183" height="50" fill="white" transform="translate(0 8)"/>
</clipPath>
</defs>
</svg>
