<svg xmlns="http://www.w3.org/2000/svg" xmlns:xlink="http://www.w3.org/1999/xlink" fill="none" version="1.1" viewBox="0 0 837.5975341796875 236.7123260498047"><defs><clipPath id="master_svg0_120_6891"><rect x="0" y="0" width="837.5975341796875" height="236.7123260498047" rx="0"/></clipPath><mask id="master_svg1_120_6892" style="mask-type:alpha" maskUnits="objectBoundingBox"><g><rect x="0" y="0" width="837.5975341796875" height="236.7123260498047" rx="0" fill="#FFFFFF" fill-opacity="1"/></g></mask><mask id="master_svg2_120_6912" style="mask-type:alpha" maskUnits="objectBoundingBox"><g transform="matrix(0.7071067690849304,-0.7071067690849304,-0.7071067690849304,-0.7071067690849304,197.1028827486416,475.8484462871429)"><rect x="231.33248901367188" y="182.9245147705078" width="152.16439819335938" height="152.16439819335938" rx="22.968223571777344" fill="#FFFFFF" fill-opacity="1"/></g></mask></defs><g clip-path="url(#master_svg0_120_6891)" mask="url(#master_svg1_120_6892)"><g><path d="M235.69270302246093,118.12032147979737Q235.69270302246093,103.11622147979736,242.46627302246094,91.24412147979736Q249.23997302246093,79.37212147979736,260.96627302246094,72.74422147979736Q272.69267302246095,66.11622147979736,287.2595730224609,66.11622147979736Q304.302873022461,66.11622147979736,317.12177302246096,74.85642147979736Q329.94067302246094,83.59652147979736,335.0394730224609,99.03742147979736L311.5863730224609,99.03742147979736Q308.0902730224609,91.75402147979736,301.75367302246093,88.11232147979736Q295.41707302246095,84.47052147979737,287.11387302246095,84.47052147979737Q278.22807302246093,84.47052147979737,271.30877302246097,88.62212147979736Q264.3895730224609,92.77372147979736,260.5292730224609,100.34852147979737Q256.66907302246096,107.92332147979737,256.66907302246096,118.12032147979737Q256.66907302246096,128.17132147979737,260.5292730224609,135.81932147979737Q264.3895730224609,143.46632147979736,271.30877302246097,147.61832147979737Q278.22807302246093,151.76932147979736,287.11387302246095,151.76932147979736Q295.41707302246095,151.76932147979736,301.75367302246093,148.05532147979736Q308.0902730224609,144.34032147979735,311.5863730224609,137.05732147979737L335.0394730224609,137.05732147979737Q329.94067302246094,152.64332147979735,317.19457302246093,161.31132147979736Q304.44857302246095,169.97832147979736,287.2595730224609,169.97832147979736Q272.69267302246095,169.97832147979736,260.96627302246094,163.35032147979737Q249.23997302246093,156.72232147979736,242.46627302246094,144.92332147979735Q235.69270302246093,133.12432147979735,235.69270302246093,118.12032147979737ZM372.91347302246095,61.30912147979736L372.91347302246095,169.10432147979736L352.51947302246094,169.10432147979736L352.51947302246094,61.30912147979736L372.91347302246095,61.30912147979736ZM403.3574730224609,78.78942147979737Q397.9684730224609,78.78942147979737,394.39947302246094,75.36622147979736Q390.830473022461,71.94302147979737,390.830473022461,66.84462147979735Q390.830473022461,61.74612147979737,394.39947302246094,58.322921479797365Q397.9684730224609,54.899721479797364,403.3574730224609,54.899721479797364Q408.74747302246095,54.899721479797364,412.31647302246097,58.322921479797365Q415.8854730224609,61.74612147979737,415.8854730224609,66.84462147979735Q415.8854730224609,71.94302147979737,412.31647302246097,75.36622147979736Q408.74747302246095,78.78942147979737,403.3574730224609,78.78942147979737ZM413.40947302246093,88.40362147979737L413.40947302246093,169.10432147979736L393.0154730224609,169.10432147979736L393.0154730224609,88.40362147979737L413.40947302246093,88.40362147979737ZM453.9054730224609,100.05712147979736Q457.8384730224609,94.52172147979736,464.75747302246094,90.80712147979736Q471.6764730224609,87.09262147979736,480.56247302246095,87.09262147979736Q490.9054730224609,87.09262147979736,499.28147302246094,92.19102147979736Q507.6574730224609,97.28942147979737,512.536473022461,106.68512147979736Q517.4164730224609,116.08032147979736,517.4164730224609,128.46232147979737Q517.4164730224609,140.84432147979737,512.536473022461,150.38632147979737Q507.6574730224609,159.92732147979737,499.28147302246094,165.17132147979737Q490.9054730224609,170.41532147979737,480.56247302246095,170.41532147979737Q471.6764730224609,170.41532147979737,464.90347302246096,166.77332147979737Q458.12947302246096,163.13232147979735,453.9054730224609,157.59632147979735L453.9054730224609,207.56132147979736L433.5114730224609,207.56132147979736L433.5114730224609,88.40362147979737L453.9054730224609,88.40362147979737L453.9054730224609,100.05712147979736ZM496.58647302246095,128.46232147979737Q496.58647302246095,121.17932147979737,493.5994730224609,115.86232147979736Q490.61347302246094,110.54532147979737,485.73347302246094,107.77762147979736Q480.85347302246095,105.00992147979737,475.17247302246096,105.00992147979737Q469.63747302246094,105.00992147979737,464.75747302246094,107.85042147979736Q459.87747302246095,110.69132147979737,456.8914730224609,116.08032147979736Q453.9054730224609,121.47032147979736,453.9054730224609,128.75432147979737Q453.9054730224609,136.03732147979736,456.8914730224609,141.42732147979737Q459.87747302246095,146.81732147979736,464.75747302246094,149.65732147979736Q469.63747302246094,152.49832147979737,475.17247302246096,152.49832147979737Q480.85347302246095,152.49832147979737,485.73347302246094,149.58432147979735Q490.61347302246094,146.67132147979737,493.5994730224609,141.28132147979736Q496.58647302246095,135.89132147979737,496.58647302246095,128.46232147979737Z" fill="#FFFFFF" fill-opacity="1"/><path d="M553.105473022461,151.91532147979737L598.845473022461,151.91532147979737L598.845473022461,169.10432147979736L529.507473022461,169.10432147979736L529.507473022461,153.37232147979736L574.956473022461,84.61622147979736L529.507473022461,84.61622147979736L529.507473022461,67.42722147979737L598.845473022461,67.42722147979737L598.845473022461,83.15952147979736L553.105473022461,151.91532147979737ZM610.9364730224609,128.46232147979737Q610.9364730224609,116.22632147979736,615.816473022461,106.75792147979736Q620.696473022461,97.28942147979737,629.0724730224609,92.19102147979736Q637.4484730224609,87.09262147979736,647.7904730224609,87.09262147979736Q656.8224730224609,87.09262147979736,663.595473022461,90.73432147979736Q670.369473022461,94.37602147979736,674.4484730224609,99.91152147979736L674.4484730224609,88.40362147979737L694.987473022461,88.40362147979737L694.987473022461,169.10432147979736L674.4484730224609,169.10432147979736L674.4484730224609,157.30532147979736Q670.5154730224609,162.98632147979737,663.595473022461,166.70032147979737Q656.6764730224609,170.41532147979737,647.6454730224609,170.41532147979737Q637.4484730224609,170.41532147979737,629.0724730224609,165.17132147979737Q620.696473022461,159.92732147979737,615.816473022461,150.38632147979737Q610.9364730224609,140.84432147979737,610.9364730224609,128.46232147979737ZM674.4484730224609,128.75432147979737Q674.4484730224609,121.32532147979737,671.5344730224609,116.00832147979736Q668.6214730224609,110.69132147979737,663.668473022461,107.85042147979736Q658.7154730224609,105.00992147979737,653.0344730224609,105.00992147979737Q647.353473022461,105.00992147979737,642.546473022461,107.77762147979736Q637.739473022461,110.54532147979737,634.7534730224609,115.86232147979736Q631.767473022461,121.17932147979737,631.767473022461,128.46232147979737Q631.767473022461,135.74632147979736,634.7534730224609,141.20832147979738Q637.739473022461,146.67132147979737,642.619473022461,149.58432147979735Q647.499473022461,152.49832147979737,653.0344730224609,152.49832147979737Q658.7154730224609,152.49832147979737,663.668473022461,149.65732147979736Q668.6214730224609,146.81732147979736,671.5344730224609,141.50032147979735Q674.4484730224609,136.18332147979737,674.4484730224609,128.75432147979737ZM735.3374730224609,100.05712147979736Q739.2704730224609,94.52172147979736,746.190473022461,90.80712147979736Q753.109473022461,87.09262147979736,761.9954730224609,87.09262147979736Q772.3374730224609,87.09262147979736,780.7134730224609,92.19102147979736Q789.089473022461,97.28942147979737,793.969473022461,106.68512147979736Q798.849473022461,116.08032147979736,798.849473022461,128.46232147979737Q798.849473022461,140.84432147979737,793.969473022461,150.38632147979737Q789.089473022461,159.92732147979737,780.7134730224609,165.17132147979737Q772.3374730224609,170.41532147979737,761.9954730224609,170.41532147979737Q753.109473022461,170.41532147979737,746.335473022461,166.77332147979737Q739.562473022461,163.13232147979735,735.3374730224609,157.59632147979735L735.3374730224609,207.56132147979736L714.9444730224609,207.56132147979736L714.9444730224609,88.40362147979737L735.3374730224609,88.40362147979737L735.3374730224609,100.05712147979736ZM778.018473022461,128.46232147979737Q778.018473022461,121.17932147979737,775.032473022461,115.86232147979736Q772.046473022461,110.54532147979737,767.166473022461,107.77762147979736Q762.2864730224609,105.00992147979737,756.605473022461,105.00992147979737Q751.070473022461,105.00992147979737,746.190473022461,107.85042147979736Q741.3104730224609,110.69132147979737,738.324473022461,116.08032147979736Q735.3374730224609,121.47032147979736,735.3374730224609,128.75432147979737Q735.3374730224609,136.03732147979736,738.324473022461,141.42732147979737Q741.3104730224609,146.81732147979736,746.190473022461,149.65732147979736Q751.070473022461,152.49832147979737,756.605473022461,152.49832147979737Q762.2864730224609,152.49832147979737,767.166473022461,149.58432147979735Q772.046473022461,146.67132147979737,775.032473022461,141.28132147979736Q778.018473022461,135.89132147979737,778.018473022461,128.46232147979737Z" fill="#FF9321" fill-opacity="1"/></g><g transform="matrix(0.7071067094802856,0.7071067094802856,-0.7071067094802856,0.7071067094802856,13.424210450604733,-96.94577312056572)" mask="url(#master_svg2_120_6912)"><g><path d="M123.69675537571311,75.28971105360985L231.3607553757131,75.28971105360985L231.3607553757131,-4.649188946390151C231.3607553757131,-14.880388946390152,218.9902553757131,-20.004288946390155,211.7556553757131,-12.76968894639015L123.69675537571311,75.28971105360985Z" fill="#D14200" fill-opacity="1"/></g><g transform="matrix(0.7071067690849304,-0.7071067690849304,0.7071067690849304,0.7071067690849304,-16.182524243233615,107.52765785810004)"><rect x="121.70610237121582" y="73.29786682128906" width="21.532699584960938" height="17.226158142089844" rx="0" fill="#FF8300" fill-opacity="1"/></g><g><path d="M230.97642517089844,182.85491796875L319.3150251708984,94.80901796875C326.56812517089844,87.57991796875,321.44852517089845,75.19091796875,311.20802517089845,75.19091796875L230.97642517089844,75.19091796875L230.97642517089844,182.85491796875Z" fill="#FFB31C" fill-opacity="1"/></g><g><path d="M123.6661880761385,75.1888198852539L231.33018807613848,182.8528198852539L231.33018807613848,75.1888198852539L123.6661880761385,75.1888198852539Z" fill="#FF8300" fill-opacity="1"/></g><g transform="matrix(0.7071067690849304,-0.7071067690849304,0.7071067690849304,0.7071067690849304,-8.304523903044469,112.67320611411662)"><path d="M149.0825289642334,74.97413346679687C149.0825289642334,79.73105346679688,146.7809289642334,85.62135346679688,142.0240289642334,85.62135346679688C137.2672089642334,85.62135346679688,131.8563289642334,79.73105346679688,131.8563289642334,74.97413346679687C131.8563289642334,70.21726346679688,135.7125389642334,66.36105346679688,140.4694089642334,66.36105346679688C145.2263289642334,66.36105346679688,149.0825289642334,70.21726346679688,149.0825289642334,74.97413346679687Z" fill="#D14200" fill-opacity="1"/></g></g></g></svg>